<svg version="1.1" xmlns="http://www.w3.org/2000/svg" xmlns:xlink="http://www.w3.org/1999/xlink" x="0px" y="0px" viewBox="0 0 1000 1000" enable-background="new 0 0 1000 1000" xml:space="preserve">
<g><g><path d="M920.4,71.2H79.6c-38.5,0-69.6,31.1-69.6,69.6s31.1,69.6,69.6,69.6h840.7c38.5,0,69.6-31.1,69.6-69.6S958.8,71.2,920.4,71.2z"/><path d="M920.4,310.7H79.6c-38.5,0-69.6,31.1-69.6,69.6c0,38.5,31.1,69.6,69.6,69.6h840.7c38.5,0,69.6-31.1,69.6-69.6C990,341.8,958.8,310.7,920.4,310.7z"/><path d="M920.4,550H79.6C41.1,550,10,581.2,10,619.7s31.1,69.6,69.6,69.6h840.7c38.5,0,69.6-31.1,69.6-69.6S958.8,550,920.4,550z"/><path d="M920.4,789.5H79.6c-38.5,0-69.6,31.1-69.6,69.6c0,38.5,31.1,69.6,69.6,69.6h840.7c38.5,0,69.6-31.1,69.6-69.6C990,820.7,958.8,789.5,920.4,789.5z"/></g><g></g><g></g><g></g><g></g><g></g><g></g><g></g><g></g><g></g><g></g><g></g><g></g><g></g><g></g><g></g></g>
</svg>